<svg enable-background="new 0 0 360 90" viewBox="0 0 360 90" xmlns="http://www.w3.org/2000/svg"><path d="m41 5c-.1-1-.5-1.2-1.5-1.5-1.5-.5-10.5-1.5-17.5-1.5s-16 1-17.5 1.5c-1 .3-1.4.5-1.5 1.5-1 12-2 30-2 40s1 28 2 40c.1 1 .8 1.3 1.5 1.5 1.5.5 10.5 1.5 17.5 1.5s16-1 17.5-1.5c.6-.2 1.3-.5 1.5-1.5 1-12 2-30 2-40s-1-28-2-40z" fill="#3d8dce"/><path d="m15.4 42.4c0 .3-.1.5-.1.7v8c0 .7.1.7.8.8.9.1.9.1.9.9v1.7c0 .5-.2.7-.7.7s-1 0-1.6 0c-1.2 0-2.5 0-3.7 0-.7 0-.8-.1-.8-.8 0-.6 0-1.2 0-1.8 0-.4.1-.7.6-.8.8-.1.8-.2.8-1 0-.6 0-11.5 0-11.8 0-.7 0-.8-.7-.9-.5-.1-.7-.3-.7-.8 0-.6 0-1.2 0-1.9 0-.4.2-.6.6-.6h8.2c.6.1.7.2.6.8-.3 2.2-.8 6.9-.8 7 0 .3.1.4.4.2.2-.1 1.3-.9 1.7-1.1.5-.3.6-.2.6.4v.1c.1 2 .1 4.1.2 6.1 0 .3-.2.8.3 1 .1-.3.3-.6.4-.9 1-3 3.4-10.7 3.7-11.5 0-.1 0-.3 0-.4-.2 0-.3 0-.5.1-.6.3-1.1.6-1.7.8-.4.2-.5 0-.5-.4s.1-.8.2-1.2c.2-.8.3-.9 1.1-.9h8.3c.5 0 .7.2.7.7v1.9c0 .4-.2.7-.7.7-.8.1-.8.2-.8.9v11.8c0 .8 0 .8.9 1 .4.1.6.3.6.7v1.7c0 .8-.2.9-.9.9-1.6 0-3.3 0-4.9 0h-.1c-.5 0-.7-.2-.7-.7 0-.4 0-.9 0-1.3 0-1 0-.9.9-1.3.2-.1.4-.3.4-.5.1-.2.1-8.5 0-8.7 0-.1-.1-.1-.1-.2 0 0-.1.1-.1.1-.2.4-4.6 11.8-4.6 11.9-.1.5-.4.7-.9.7-2.8 0-2.2.4-3.2-2.1-1.4-3.5-2.7-7.1-4.1-10.6.1 0 .1 0 0-.1z" fill="#fff"/><path d="m18 28.3c.6.1 2-1.1 2.4-1.3 0 .4 0 2.5-.2 3.1-.2 1-.2 1-1.2 1-1.6 0-5.9 0-6.4 0-.6 0-.7-.1-.7-.7s0-1.2 0-1.8c0-.5.2-.8.7-.8.6 0 .8-.4 1-.9.6-1.7 4.4-11.8 4.5-12.1.2-.6.1-.6-.5-.7-.2 0-.3 0-.5 0-.4 0-.6-.2-.6-.6 0-.7 0-1.3 0-2 0-.6.1-.7.8-.7h7.2c.9 0 1 0 1.3.9 1.3 4.1 4.7 14.3 5 15.3.1.4.4.7.9.7s.7.3.7.8v1.8c0 .6-.1.7-.7.7-.8 0-4.8 0-6.1 0-1 0-1-.1-.9-1 .4-2.3.8-4.5 1.2-6.8 0-.1 0-.3-.1-.5-.1.1-.3.1-.4.2-.3.2-.7.5-1 .7-.5.4-.6.3-.7-.3-.3-1.5-1.2-7-1.5-8.2-.3.2-4.1 12.7-4.2 13.2z" fill="#fff"/><path d="m18.7 59.1h3.6c1.2 0 2.4.2 3.6.5 2.2.6 3.7 1.9 4.5 4.1.9 2.8.1 5.8-2.4 7.6-1.4 1-2.9 1.4-4.6 1.5-1.2 0-2.4 0-3.5 0-.8 0-.9.1-.9.8v2.1c0 .7.1.8.8.8 1.5.1 1.5.1 1.5 1.6 0 1.9.1 1.7-1.7 1.7s-3.5 0-5.3 0c-1 0-1-.1-1.1-1.1 0-.5 0-1 0-1.4 0-.6.1-.7.7-.8h.4c.3 0 .5-.2.5-.5 0-.2 0-.5 0-.7 0-3.8 0-11.7 0-11.9 0-.5-.2-.7-.7-.7-.9-.1-.9-.1-1-1.1 0-.6 0-1.1 0-1.7 0-.7.1-.8.8-.8zm.3 6.8v2.4c0 .6.1.7.7.7 1.1 0 2.2.1 3.3 0 .9-.1 1.8-.4 2.4-1.1 1.1-1.3 1.1-3.7-1.1-4.6-1.5-.7-3.2-.4-4.8-.4-.4 0-.5.3-.5.7z" fill="#fff"/><path d="m69.9 50-1.7-4.8h-6.6l-1.6 4.8h-3l6.4-17.2h3l6.5 17.2zm-2.5-7.2-1.6-4.7c-.1-.3-.3-.8-.5-1.5s-.3-1.2-.4-1.5c-.2 1-.5 2-.9 3.2l-1.5 4.5z" fill="#3d8dce"/><path d="m85.8 50h-2.8v-8c0-1-.2-1.7-.6-2.2s-1-.7-1.8-.7c-1.1 0-1.8.3-2.3 1s-.7 1.8-.7 3.5v6.4h-2.8v-13h2.2l.4 1.7h.1c.4-.6.9-1.1 1.6-1.4s1.4-.5 2.3-.5c2 0 3.3.7 4 2h.2c.4-.6.9-1.1 1.6-1.5s1.5-.5 2.4-.5c1.5 0 2.7.4 3.4 1.2s1.1 2 1.1 3.6v8.4h-2.8v-8c0-1-.2-1.7-.6-2.2s-1-.7-1.8-.7c-1.1 0-1.9.3-2.3 1s-.7 1.7-.7 3.1v6.8z" fill="#3d8dce"/><path d="m103.4 50.2c-2 0-3.6-.6-4.7-1.8s-1.7-2.7-1.7-4.8.5-3.8 1.6-5 2.5-1.8 4.3-1.8c1.7 0 3.1.5 4.1 1.6s1.5 2.5 1.5 4.3v1.5h-8.6c0 1.3.4 2.2 1 2.9s1.5 1 2.7 1c.8 0 1.5-.1 2.1-.2s1.4-.4 2.1-.7v2.2c-.7.3-1.4.5-2 .7s-1.5.1-2.4.1zm-.5-11.3c-.9 0-1.6.3-2.1.8s-.8 1.4-.9 2.4h5.9c0-1.1-.3-1.9-.8-2.4s-1.2-.8-2.1-.8z" fill="#3d8dce"/><path d="m118.2 36.8c.6 0 1 0 1.4.1l-.3 2.6c-.4-.1-.8-.1-1.2-.1-1.1 0-2 .4-2.7 1.1s-1 1.7-1 2.8v6.7h-2.8v-13h2.2l.4 2.3h.1c.4-.8 1-1.4 1.7-1.8s1.4-.7 2.2-.7z" fill="#3d8dce"/><path d="m121.8 33.6c0-.5.1-.9.4-1.1s.7-.4 1.2-.4.9.1 1.1.4.4.6.4 1.1-.1.8-.4 1.1-.6.4-1.1.4-.9-.1-1.2-.4-.4-.6-.4-1.1zm2.9 16.4h-2.7v-13h2.8v13z" fill="#3d8dce"/><path d="m133.9 50.2c-2 0-3.5-.6-4.5-1.7s-1.5-2.8-1.5-4.9c0-2.2.5-3.9 1.6-5s2.6-1.8 4.6-1.8c1.4 0 2.6.3 3.7.8l-.8 2.2c-1.2-.5-2.1-.7-2.9-.7-2.2 0-3.4 1.5-3.4 4.5 0 1.5.3 2.5.8 3.3s1.4 1.1 2.5 1.1c1.2 0 2.4-.3 3.5-.9v2.4c-.5.3-1 .5-1.6.6s-1.2.1-2 .1z" fill="#3d8dce"/><path d="m148.6 50-.6-1.8c-.6.8-1.3 1.3-1.9 1.6s-1.4.4-2.4.4c-1.3 0-2.3-.3-3-1s-1.1-1.7-1.1-2.9c0-1.3.5-2.3 1.5-3s2.5-1.1 4.5-1.1l2.2-.1v-.7c0-.8-.2-1.4-.6-1.9s-1-.6-1.8-.6c-.7 0-1.3.1-1.9.3s-1.2.4-1.8.7l-.9-2c.7-.4 1.5-.6 2.3-.8s1.6-.3 2.4-.3c1.6 0 2.9.4 3.7 1.1s1.3 1.8 1.3 3.4v8.7zm-4.1-1.9c1 0 1.8-.3 2.4-.8s.9-1.3.9-2.3v-1.1l-1.7.1c-1.3 0-2.2.3-2.8.7s-.9 1-.9 1.8c0 .6.2 1 .5 1.3s1 .3 1.6.3z" fill="#3d8dce"/><path d="m165.9 50h-2.8v-8c0-1-.2-1.7-.6-2.2s-1-.7-1.9-.7c-1.2 0-2 .3-2.6 1s-.8 1.8-.8 3.5v6.4h-2.8v-13h2.2l.4 1.7h.1c.4-.6.9-1.1 1.7-1.4s1.5-.5 2.4-.5c3.1 0 4.7 1.6 4.7 4.7z" fill="#3d8dce"/><path d="m183.6 50-5-14.3h-.1c.1 2.1.2 4.1.2 6v8.3h-2.5v-17.1h3.9l4.8 13.6h.1l4.9-13.6h4v17.1h-2.7v-8.5c0-.9 0-2 .1-3.3s.1-2.2.1-2.5h-.1l-5.2 14.3z" fill="#3d8dce"/><path d="m197.9 33.6c0-.5.1-.9.4-1.1s.7-.4 1.2-.4.9.1 1.1.4.4.6.4 1.1-.1.8-.4 1.1-.6.4-1.1.4-.9-.1-1.2-.4-.4-.6-.4-1.1zm2.9 16.4h-2.8v-13h2.8z" fill="#3d8dce"/><path d="m209.1 50.2c-1.6 0-2.9-.6-3.8-1.8s-1.4-2.8-1.4-4.9.5-3.8 1.4-5 2.2-1.8 3.8-1.8c1.7 0 3 .6 3.9 1.9h.1c-.1-.9-.2-1.7-.2-2.2v-4.7h2.8v18.3h-2.2l-.5-1.7c-.9 1.3-2.2 1.9-3.9 1.9zm.8-2.2c1.1 0 2-.3 2.5-1s.8-1.7.8-3.1v-.4c0-1.6-.3-2.8-.8-3.5s-1.4-1-2.5-1c-1 0-1.7.4-2.2 1.2s-.8 1.9-.8 3.4c0 1.4.3 2.5.8 3.3s1.2 1.1 2.2 1.1z" fill="#3d8dce"/><path d="m230.3 50-1.7-6c-.2-.6-.6-2.1-1.1-4.5h-.1c-.5 2.1-.8 3.6-1.1 4.5l-1.7 6h-3l-3.6-13h2.8l1.7 6.4c.4 1.6.6 2.9.8 4.1h.1c.1-.6.2-1.2.4-2s.3-1.3.4-1.7l2-6.8h3l1.9 6.8c.1.4.3 1 .4 1.8s.3 1.4.3 1.8h.1c.1-1 .4-2.3.8-4l1.7-6.4h2.8l-3.7 13z" fill="#3d8dce"/><path d="m245 50.2c-2 0-3.6-.6-4.7-1.8s-1.7-2.8-1.7-4.9.5-3.8 1.6-5 2.5-1.8 4.3-1.8c1.7 0 3.1.5 4.1 1.6s1.5 2.5 1.5 4.3v1.5h-8.6c0 1.3.4 2.2 1 2.9s1.5 1 2.7 1c.8 0 1.5-.1 2.1-.2s1.4-.4 2.1-.7v2.2c-.7.3-1.4.5-2 .7s-1.5.2-2.4.2zm-.5-11.3c-.9 0-1.6.3-2.1.8s-.8 1.4-.9 2.4h5.9c0-1.1-.3-1.9-.8-2.4s-1.2-.8-2.1-.8z" fill="#3d8dce"/><path d="m261.9 46.3c0 1.3-.5 2.2-1.4 2.9s-2.2 1-4 1c-1.7 0-3.1-.3-4.2-.8v-2.4c1.5.7 2.9 1.1 4.3 1.1 1.7 0 2.5-.5 2.5-1.5 0-.3-.1-.6-.3-.8s-.5-.4-.9-.7-1-.5-1.8-.8c-1.5-.6-2.5-1.2-3-1.7s-.8-1.3-.8-2.2c0-1.1.4-2 1.3-2.6s2.1-.9 3.7-.9c1.5 0 3 .3 4.3.9l-.9 2.1c-1.4-.6-2.6-.9-3.5-.9-1.5 0-2.2.4-2.2 1.2 0 .4.2.8.6 1s1.2.7 2.5 1.2c1.1.4 1.8.8 2.3 1.1s.8.7 1.1 1.2.4 1 .4 1.6z" fill="#3d8dce"/><path d="m269.7 48c.7 0 1.3-.1 2-.3v2.1c-.3.1-.7.2-1.2.3s-1 .1-1.5.1c-2.6 0-3.9-1.4-3.9-4.1v-7h-1.8v-1.2l1.9-1 .9-2.7h1.7v2.8h3.7v2.1h-3.7v6.9c0 .7.2 1.2.5 1.5s.8.5 1.4.5z" fill="#3d8dce"/><path d="m292.1 38c0 1.8-.6 3.2-1.8 4.1s-2.8 1.4-5 1.4h-1.8v6.5h-2.8v-17.1h4.9c2.1 0 3.7.4 4.8 1.3s1.7 2.1 1.7 3.8zm-8.5 3.2h1.5c1.4 0 2.5-.2 3.2-.8s1-1.3 1-2.3-.3-1.7-.9-2.2-1.5-.7-2.8-.7h-1.9v6z" fill="#3d8dce"/><path d="m306.8 43.5c0 2.1-.5 3.8-1.6 5s-2.6 1.8-4.5 1.8c-1.2 0-2.3-.3-3.2-.8s-1.6-1.3-2.1-2.4-.8-2.2-.8-3.6c0-2.1.5-3.7 1.6-4.9s2.6-1.8 4.6-1.8c1.9 0 3.4.6 4.5 1.8s1.5 2.8 1.5 4.9zm-9.5 0c0 3 1.1 4.5 3.3 4.5s3.3-1.5 3.3-4.5-1.1-4.4-3.3-4.4c-1.2 0-2 .4-2.5 1.1s-.8 1.9-.8 3.3z" fill="#3d8dce"/><path d="m320.6 50-1.7-6c-.2-.6-.6-2.1-1.1-4.5h-.1c-.5 2.1-.8 3.6-1.1 4.5l-1.7 6h-3l-3.6-13h2.8l1.7 6.4c.4 1.6.6 2.9.8 4.1h.1c.1-.6.2-1.2.4-2s.3-1.3.4-1.7l2-6.8h3l1.9 6.8c.1.4.3 1 .4 1.8s.3 1.4.3 1.8h.1c.1-1 .4-2.3.8-4l1.7-6.4h2.8l-3.7 13z" fill="#3d8dce"/><path d="m335.2 50.2c-2 0-3.6-.6-4.7-1.8s-1.7-2.8-1.7-4.9.5-3.8 1.6-5 2.5-1.8 4.3-1.8c1.7 0 3.1.5 4.1 1.6s1.5 2.5 1.5 4.3v1.5h-8.6c0 1.3.4 2.2 1 2.9s1.5 1 2.7 1c.8 0 1.5-.1 2.1-.2s1.4-.4 2.1-.7v2.2c-.7.3-1.4.5-2 .7s-1.5.2-2.4.2zm-.5-11.3c-.9 0-1.6.3-2.1.8s-.8 1.4-.9 2.4h5.9c0-1.1-.3-1.9-.8-2.4s-1.2-.8-2.1-.8z" fill="#3d8dce"/><path d="m349.9 36.8c.6 0 1 0 1.4.1l-.3 2.6c-.4-.1-.8-.1-1.2-.1-1.1 0-2 .4-2.7 1.1s-1 1.7-1 2.8v6.7h-2.8v-13h2.2l.4 2.3h.1c.4-.8 1-1.4 1.7-1.8s1.4-.7 2.2-.7z" fill="#3d8dce"/><g fill="#56585a"><path d="m60.9 69.7c-.6 0-1.1-.1-1.5-.2s-.8-.3-1-.5l-.4.5h-.5l.7-3.3h.6c0 .4.1.8.2 1.1s.2.7.4.9c.2.3.4.5.7.7s.7.2 1.1.2c.7 0 1.2-.2 1.6-.6s.6-.9.6-1.5c0-.4-.1-.7-.3-.9s-.4-.5-.8-.6c-.3-.1-.7-.3-1-.4s-.6-.2-.9-.4c-.4-.2-.7-.5-1-.8-.3-.4-.4-.8-.4-1.2s.1-.8.3-1.2.5-.7.8-1 .7-.5 1.1-.6.9-.2 1.3-.2.8 0 1.2.1.7.3 1.1.5l.4-.5h.5l-.7 3.2h-.6c0-.4 0-.7-.1-1.1s-.2-.7-.3-.9c-.1-.3-.4-.5-.6-.6-.3-.2-.6-.2-1.1-.2s-1 .2-1.4.6-.5.8-.5 1.3c0 .3.1.6.2.9.1.2.3.4.6.6s.6.3.9.4.6.2.9.4c.5.2.9.5 1.2.9s.4.8.4 1.3-.1.9-.3 1.4-.5.8-.8 1.1c-.4.3-.8.5-1.2.7s-.9-.1-1.4-.1z"/><path d="m72.3 65.3c0 .5-.1 1.1-.3 1.6s-.4 1-.8 1.4-.8.8-1.3 1-1.1.4-1.7.4c-.8 0-1.4-.2-1.8-.7s-.7-1.1-.7-2c0-.6.1-1.2.3-1.7s.5-1 .8-1.4.8-.7 1.3-1 1-.4 1.6-.4c.8 0 1.4.2 1.9.7s.7 1.3.7 2.1zm-1.4-.3c0-.6-.1-1.1-.3-1.5-.2-.3-.6-.5-1-.5s-.7.1-1.1.3c-.3.2-.6.6-.9 1.1-.2.4-.3.8-.4 1.3s-.1.9-.1 1.3c0 .7.1 1.1.3 1.5s.6.5 1 .5.8-.1 1.1-.4.6-.6.8-1 .3-.8.5-1.3c0-.2.1-.8.1-1.3z"/><path d="m76.7 59-1.9 8.2c0 .2-.1.3-.1.5s-.1.3-.1.4c0 .3.1.4.2.5s.3.1.6.1h.4s.3 0 .4-.1l-.1.4c-.4.2-.7.3-.9.3s-.5.1-.7.1c-.4 0-.6-.1-.8-.3s-.3-.4-.3-.7c0-.1 0-.2 0-.3s0-.3.1-.4l1.7-7.2c0-.1.1-.2.1-.3s0-.1 0-.2c0-.2 0-.3-.1-.4s-.1-.2-.2-.2-.2-.1-.4-.1-.3 0-.4 0l.1-.4 2.5-.2z"/><path d="m81.3 68.5c-.3.2-.5.3-.6.5s-.4.3-.6.4-.4.2-.6.2-.4.1-.7.1c-.4 0-.8-.1-1-.4s-.4-.6-.4-1c0-.1 0-.2 0-.4s.1-.4.1-.7l.5-2.2c0-.2.1-.4.1-.5 0-.2 0-.3 0-.4 0-.3 0-.4-.1-.5s-.3-.1-.5-.1c-.1 0-.2 0-.4.1-.2 0-.3.1-.4.1l.1-.4c.4-.2.7-.3.9-.4s.5-.1.7-.1c.4 0 .6.1.8.3s.3.4.3.7v.3c0 .1 0 .3-.1.4l-.5 2.5c0 .2-.1.4-.1.5v.4c0 .3.1.5.2.7s.3.3.6.3.6-.1.9-.2c.3-.2.6-.4.9-.7l1.2-5.1 1.2-.1.1.1-1 4.4c0 .2-.1.4-.1.6s-.1.3-.1.4c0 .3.1.4.2.5s.3.1.6.1h.4s.3-.1.4-.1l-.3.4c-.4.2-.7.3-.9.3-.3.1-.5.1-.7.1-.4 0-.6-.1-.8-.3s-.3-.5-.3-.8z"/><path d="m86.4 69.6c-.4 0-.7-.1-1-.3-.2-.2-.3-.4-.3-.8 0-.1 0-.2 0-.3s0-.2.1-.3l1.1-4.6h-1.2l.1-.6h1.2l.5-2h1.2l-.5 2h1.9l-.1.6h-1.9l-.9 3.8c0 .2-.1.3-.1.5v.4c0 .3.1.4.2.5s.4.2.7.2h.5c.2 0 .4-.1.5-.1l-.1.5c-.3.1-.6.2-.9.3-.3.2-.6.2-1 .2z"/><path d="m92.8 68.8-.1.4c-.4.2-.8.3-1 .4-.3.1-.5.1-.6.1-.4 0-.6-.1-.8-.3s-.3-.5-.3-.7c0-.1 0-.2 0-.3s0-.3.1-.4l.7-2.9c0-.2.1-.3.1-.5s.1-.5.1-.6c0-.3 0-.4-.1-.5s-.3-.1-.5-.1c-.1 0-.2 0-.4 0s-.3.1-.4.1l.1-.4c.4-.2.7-.3 1-.4s.5-.1.7-.1c.4 0 .6.1.8.3s.3.4.3.7v.3c0 .1 0 .3-.1.4l-.7 2.9c0 .2-.1.4-.1.5 0 .2-.1.3-.1.4 0 .3.1.4.2.5s.3.1.6.1h.4c-.1.1.1.1.1.1zm.5-8.8c0 .3-.1.5-.3.7s-.4.3-.6.3-.4-.1-.6-.3-.3-.4-.3-.6c0-.3.1-.5.3-.7s.4-.3.6-.3c.3 0 .5.1.6.3.2.2.3.4.3.6z"/><path d="m100.2 65.3c0 .5-.1 1.1-.3 1.6s-.4 1-.8 1.4-.8.8-1.3 1-1.1.4-1.7.4c-.8 0-1.4-.2-1.8-.7s-.7-1.1-.7-2c0-.6.1-1.2.3-1.7s.5-1 .8-1.4.8-.7 1.3-1 1-.4 1.6-.4c.8 0 1.4.2 1.9.7s.7 1.3.7 2.1zm-1.4-.3c0-.6-.1-1.1-.3-1.5-.2-.3-.6-.5-1-.5s-.7.1-1.1.3c-.3.2-.6.6-.9 1.1-.2.4-.3.8-.4 1.3-.1.7-.1 1.1-.1 1.5 0 .7.1 1.1.3 1.5s.6.5 1 .5.8-.1 1.1-.4.6-.6.8-1 .3-.8.5-1.3c0-.4.1-1 .1-1.5z"/><path d="m108.3 68.7-.1.4c-.4.2-.7.3-1 .4-.2.1-.5.1-.7.1-.4 0-.6-.1-.8-.3s-.3-.4-.3-.7c0-.1 0-.2 0-.3s0-.3.1-.4l.7-2.6c.1-.2.1-.4.1-.5 0-.2 0-.3 0-.4 0-.3-.1-.5-.2-.7s-.4-.3-.6-.3c-.3 0-.6.1-.9.3s-.7.4-1 .8l-1.2 5h-1.3l1-4.4c0-.1.1-.3.1-.5s.1-.4.1-.5c0-.3 0-.4-.1-.5s-.3-.1-.5-.1c-.1 0-.2 0-.4.1-.2 0-.3.1-.4.1l.1-.4c.4-.2.7-.3.9-.4s.5-.1.7-.1c.4 0 .6.1.8.3s.2.5.2.8c.5-.4.9-.7 1.3-.9s.8-.3 1.2-.3.8.1 1 .4.4.6.4 1v.4s-.1.4-.1.6l-.6 2.2c0 .1-.1.3-.1.5s-.1.3-.1.4c0 .3.1.4.2.5s.3.1.6.1h.4c.3 0 .4-.1.5-.1z"/><path d="m111.1 69.7c-.7 0-1.2-.1-1.7-.4-.4-.2-.7-.6-.7-.9 0-.2.1-.4.2-.5s.3-.2.5-.2.3 0 .4.1l.3.3c.1.1.1.3.2.4s.1.3.1.4c.1.1.2.1.3.2s.3.1.5.1c.5 0 .9-.1 1.1-.4s.4-.6.4-1c0-.3-.1-.6-.4-.7-.2-.2-.6-.4-1.1-.5-.2-.1-.4-.1-.6-.2s-.4-.2-.5-.4c-.2-.1-.3-.3-.4-.5s-.2-.4-.2-.7c0-.6.3-1.1.8-1.5s1.2-.6 1.9-.6h.6s.4.1.7.2c.2.1.4.2.5.3.2.1.2.3.2.6 0 .2-.1.4-.2.5-.1.2-.3.2-.5.2s-.3 0-.4-.1-.1-.3-.1-.4-.1-.3-.2-.4-.1-.3-.2-.4c-.1 0-.2-.1-.2-.1s-.2 0-.3 0c-.4 0-.8.1-1 .4-.2.2-.3.5-.3.9 0 .3.1.6.3.7s.6.3 1 .5c.6.2 1.1.5 1.4.8s.4.6.4 1.1c0 .7-.3 1.3-.8 1.7-.5.3-1.2.5-2 .5z"/><path d="m121.1 63.4-1.2 5.6c-.2 1-.7 1.8-1.4 2.5s-1.4 1-2.1 1c-.4 0-.7-.1-.9-.2-.2-.2-.3-.3-.3-.6 0-.2.1-.4.2-.5s.3-.2.5-.2c.1 0 .3 0 .4.1s.2.1.3.2.1.2.2.3.1.2.2.3c.4 0 .7-.3.9-.7s.5-1.1.6-1.9l1.3-5.9h-1.3l.1-.6h1.3l.1-.5c.1-.5.3-1 .5-1.4s.5-.8.8-1.1.6-.5 1-.7.7-.2 1.1-.2.7.1.9.2c.2.2.3.3.3.6 0 .2-.1.4-.2.5-.1.2-.3.2-.5.2-.1 0-.3 0-.4-.1s-.2-.1-.3-.2-.2-.2-.2-.3c-.1-.1-.1-.2-.2-.3-.3 0-.6.2-.8.6s-.5 1.1-.7 2l-.2.7h1.7l-.1.6z"/><path d="m129.3 65.3c0 .5-.1 1.1-.3 1.6s-.4 1-.8 1.4-.8.8-1.3 1-1.1.4-1.7.4c-.8 0-1.4-.2-1.8-.7s-.7-1.1-.7-2c0-.6.1-1.2.3-1.7s.5-1 .8-1.4.8-.7 1.3-1 1-.4 1.6-.4c.8 0 1.4.2 1.9.7s.7 1.3.7 2.1zm-1.4-.3c0-.6-.1-1.1-.3-1.5-.2-.3-.6-.5-1-.5s-.7.1-1.1.3c-.3.2-.6.6-.9 1.1-.2.4-.3.8-.4 1.3s-.1.9-.1 1.3c0 .7.1 1.1.3 1.5s.6.5 1 .5.8-.1 1.1-.4.6-.6.8-1 .3-.8.5-1.3c0-.2.1-.8.1-1.3z"/><path d="m136.1 63.7c0 .1 0 .3-.1.4 0 .2-.1.3-.2.4s-.2.2-.3.3-.2.1-.4.1-.4-.1-.6-.2-.2-.3-.2-.4 0-.3.1-.5.1-.3.2-.5c-.1 0-.1 0-.3 0-.1 0-.3.1-.5.2s-.4.2-.6.4-.5.4-.7.7l-1.1 4.9h-1.3l1-4.4c0-.1.1-.3.1-.5s.1-.4.1-.5c0-.3 0-.4-.1-.5s-.3-.1-.5-.1c-.1 0-.2 0-.4.1-.2 0-.3.1-.4.1l.1-.4c.4-.2.7-.3.9-.4s.5-.1.7-.1c.4 0 .6.1.8.3s.2.5.2.9c.5-.5 1-.8 1.2-1 .3-.2.6-.3.9-.3.1 0 .3 0 .4.1s.3.1.3.2c.1.1.2.2.2.3.5 0 .5.2.5.4z"/><path d="m148.6 59.8-.5 2.3h-.5c0-.5-.1-.9-.3-1.2s-.4-.5-.7-.6c-.1 0-.3 0-.5 0s-.4 0-.7 0h-1.6l-.9 3.9h1.1c.3 0 .6 0 .8-.1s.4-.2.5-.3.3-.3.4-.6c.1-.2.2-.4.3-.6h.5l-.9 3.8h-.5s0-.1 0-.2 0-.1 0-.2c0-.2 0-.3 0-.5s-.1-.3-.1-.3c-.1-.2-.2-.3-.4-.3-.2-.1-.4-.1-.7-.1h-1.1l-.7 3c0 .1 0 .2-.1.4v.3c0 .3.1.4.3.5s.6.1 1.2.1c.8 0 1.3 0 1.6-.1s.5-.1.6-.2c.3-.2.6-.5.9-1s.6-.8.7-1h.5l-.8 2.9h-8.1l.1-.7c.1 0 .3 0 .6-.1.2 0 .4-.1.5-.1.2-.1.3-.1.4-.3s.1-.3.2-.4l1.6-7v-.1s0-.1 0-.1c0-.1 0-.2-.1-.2s-.1-.1-.2-.2-.3-.1-.5-.2-.4-.1-.5-.1l.1-.5h7.5z"/><path d="m152.2 59-1.9 8.2c0 .2-.1.3-.1.5s-.1.3-.1.4c0 .3.1.4.2.5s.3.1.6.1h.4s.3 0 .4-.1l-.1.4c-.4.2-.7.3-.9.3s-.5.1-.7.1c-.4 0-.6-.1-.8-.3s-.3-.4-.3-.7c0-.1 0-.2 0-.3s0-.3.1-.4l1.7-7.2c0-.1.1-.2.1-.3s0-.1 0-.2c0-.2 0-.3-.1-.4s-.1-.2-.2-.2-.2-.1-.4-.1-.3 0-.4 0l.1-.4 2.5-.2z"/><path d="m158.3 64c0 .5-.2.9-.5 1.2s-.7.6-1.3.8c-.4.2-.9.3-1.3.4s-.9.2-1.4.2c0 .7.1 1.3.4 1.7s.7.6 1.2.6.9-.1 1.2-.3.7-.6 1-1l.4.3c-.4.6-.8 1-1.4 1.3s-1.1.5-1.7.5c-.8 0-1.4-.2-1.8-.7s-.6-1.1-.6-1.9c0-.6.1-1.1.3-1.6s.4-1 .8-1.4c.3-.4.8-.8 1.2-1 .5-.3 1-.4 1.6-.4.7 0 1.1.1 1.5.4.3.2.4.5.4.9zm-1.2-.1c0-.2 0-.3-.1-.4s-.1-.2-.2-.2c-.1-.1-.2-.1-.3-.1s-.2 0-.3 0c-.5 0-1.1.3-1.5.9s-.8 1.3-.9 2.2c.3 0 .7-.1 1.1-.2s.7-.2 1-.3c.4-.2.7-.4.8-.8.3-.4.4-.7.4-1.1z"/><path d="m161.5 69.7c-.8 0-1.4-.2-1.9-.7s-.7-1.1-.7-2c0-.6.1-1.1.3-1.6s.4-1 .7-1.4.7-.7 1.2-1 1-.4 1.6-.4c.7 0 1.1.1 1.5.4.3.3.5.6.5 1 0 .3-.1.6-.2.8s-.4.4-.7.4c-.2 0-.4-.1-.6-.2-.1-.1-.2-.3-.2-.4s0-.3.1-.6.2-.5.2-.6c-.1-.1-.2-.2-.3-.3s-.4-.1-.5-.1c-.6 0-1.2.4-1.6 1.1s-.7 1.6-.7 2.7c0 .6.1 1.2.4 1.5.3.4.7.6 1.2.6.4 0 .8-.1 1.2-.4s.7-.6 1-1l.4.3c-.3.5-.7.9-1.3 1.3-.4.4-1 .6-1.6.6z"/><path d="m166.7 69.6c-.4 0-.7-.1-1-.3-.2-.2-.3-.4-.3-.8 0-.1 0-.2 0-.3s0-.2.1-.3l1.1-4.6h-1.2l.1-.6h1.2l.5-2h1.2l-.5 2h1.9l-.1.6h-1.9l-.9 3.8c0 .2-.1.3-.1.5v.4c0 .3.1.4.2.5s.4.2.7.2h.5c.2 0 .4-.1.5-.1l-.1.5c-.3.1-.6.2-.9.3-.3.2-.6.2-1 .2z"/><path d="m175.9 63.7c0 .1 0 .3-.1.4 0 .2-.1.3-.2.4s-.2.2-.3.3-.2.1-.4.1-.4-.1-.6-.2-.2-.3-.2-.4 0-.3.1-.5.1-.3.2-.5c-.1 0-.1 0-.3 0-.1 0-.3.1-.5.2s-.4.2-.6.4-.5.4-.7.7l-1.1 4.9h-1.3l1-4.4c0-.1.1-.3.1-.5s.1-.4.1-.5c0-.3 0-.4-.1-.5s-.3-.1-.5-.1c-.1 0-.2 0-.4.1-.2 0-.3.1-.4.1l.1-.4c.4-.2.7-.3.9-.4s.5-.1.7-.1c.4 0 .6.1.8.3s.2.5.2.9c.5-.5 1-.8 1.2-1 .3-.2.6-.3.9-.3.1 0 .3 0 .4.1s.3.1.3.2c.1.1.2.2.2.3.5 0 .5.2.5.4z"/><path d="m179.5 68.8-.1.4c-.4.2-.8.3-1 .4-.3.1-.5.1-.6.1-.4 0-.6-.1-.8-.3s-.3-.4-.3-.7c0-.1 0-.2 0-.3s0-.3.1-.4l.7-2.9c0-.2.1-.3.1-.5s.1-.3.1-.5c0-.3 0-.4-.1-.5s-.3-.1-.5-.1c-.1 0-.2 0-.4 0s-.3.1-.4.1l.1-.4c.4-.2.7-.3 1-.4s.5-.1.7-.1c.4 0 .6.1.8.3s.3.4.3.7v.3c0 .1 0 .3-.1.4l-.7 2.9c0 .2-.1.4-.1.5 0 .2-.1.3-.1.4 0 .3.1.4.2.5s.3.1.6.1h.4s0 0 .1 0zm.5-8.8c0 .3-.1.5-.3.7s-.4.3-.6.3-.4-.1-.6-.3-.3-.4-.3-.6c0-.3.1-.5.3-.7s.4-.3.6-.3c.3 0 .5.1.6.3.2.2.3.4.3.6z"/><path d="m182.8 69.7c-.8 0-1.4-.2-1.9-.7s-.7-1.1-.7-2c0-.6.1-1.1.3-1.6s.4-1 .7-1.4.7-.7 1.2-1 1-.4 1.6-.4c.7 0 1.1.1 1.5.4.3.3.5.6.5 1 0 .3-.1.6-.2.8s-.4.4-.7.4c-.2 0-.4-.1-.6-.2-.1-.1-.2-.3-.2-.4s0-.3.1-.6.2-.5.2-.6-.2-.2-.3-.3-.4-.1-.5-.1c-.6 0-1.2.4-1.6 1.1s-.7 1.6-.7 2.7c0 .6.1 1.2.4 1.5.3.4.7.6 1.2.6.4 0 .8-.1 1.2-.4s.7-.6 1-1l.4.3c-.3.5-.7.9-1.3 1.3-.5.4-1 .6-1.6.6z"/><path d="m190.7 68.6c-.1.1-.3.2-.4.3s-.3.2-.5.4c-.2.1-.4.2-.6.3s-.4.1-.7.1c-.7 0-1.2-.2-1.6-.7s-.6-1.1-.6-1.9c0-.6.1-1.1.3-1.6s.5-1 .9-1.4.8-.7 1.2-1c.5-.2 1-.4 1.5-.4.3 0 .6 0 .9.1s.5.2.7.3l1.3-.3.1.1-1 4.4c0 .1-.1.3-.1.5s-.1.4-.1.4c0 .3.1.4.2.5s.3.1.6.1h.4c.2 0 .3-.1.4-.1l-.1.4c-.4.2-.7.3-.9.4s-.4.1-.7.1-.6-.1-.8-.3c-.3-.2-.4-.4-.4-.7zm1-4.3c0-.2 0-.3 0-.4s-.1-.3-.2-.4-.2-.2-.4-.3-.4-.1-.6-.1c-.3 0-.7.1-1 .3s-.6.5-.8.9c-.2.3-.4.8-.6 1.3s-.2 1-.2 1.5v.7c0 .2.1.4.2.6s.2.3.4.4.4.1.6.1c.3 0 .5-.1.8-.2s.6-.4.9-.8z"/><path d="m197.9 59-1.9 8.2c0 .2-.1.3-.1.5s-.1.3-.1.4c0 .3.1.4.2.5s.3.1.6.1h.4s.3 0 .4-.1l-.1.4c-.4.2-.7.3-.9.3-.2.1-.5.1-.7.1-.4 0-.6-.1-.8-.3s-.3-.4-.3-.7c0-.1 0-.2 0-.3s0-.3.1-.4l1.7-7.2c0-.1.1-.2.1-.3s0-.1 0-.2c0-.2 0-.3-.1-.4s-.1-.2-.2-.2-.2-.1-.4-.1-.3 0-.4 0l.1-.4 2.5-.2z"/><path d="m211.3 63.5c0 .9-.2 1.8-.5 2.5-.4.8-.8 1.4-1.4 1.9s-1.3.9-2 1.2-1.5.4-2.3.4h-4.2l.1-.5h.5c.2 0 .4-.1.5-.1.2-.1.3-.2.4-.3s.1-.3.2-.4l1.6-7c0-.1 0-.1 0-.2s0-.1 0-.2 0-.2-.1-.3c0-.1-.1-.1-.2-.2s-.3-.1-.4-.1c-.2 0-.3-.1-.4-.1l.1-.5h4.1c.4 0 .9.1 1.3.2.5.1.9.3 1.4.6.4.3.8.7 1.1 1.2 0 .7.2 1.2.2 1.9zm-1.6 0c0-1-.3-1.8-.8-2.4s-1.3-.8-2.2-.8c-.2 0-.4 0-.6 0s-.4 0-.5 0l-1.7 7.5v.2.2c0 .3.1.5.3.6s.6.2 1.1.2c.7 0 1.3-.2 1.9-.5s1-.7 1.4-1.2.7-1.1.8-1.7c.2-.7.3-1.4.3-2.1z"/><path d="m215 68.8-.1.4c-.4.2-.8.3-1 .4-.3.1-.5.1-.6.1-.4 0-.6-.1-.8-.3s-.3-.4-.3-.7c0-.1 0-.2 0-.3s0-.3.1-.4l.7-3c0-.2.1-.3.1-.5s.1-.3.1-.5c0-.3 0-.4-.1-.5s-.3-.1-.5-.1c-.1 0-.2 0-.4 0s-.3.1-.4.1l.1-.4c.4-.2.7-.3 1-.4s.5-.1.7-.1c.4 0 .6.1.8.3s.3.4.3.7v.3c0 .1 0 .3-.1.4l-.7 2.9c0 .2-.1.4-.1.5 0 .2-.1.3-.1.4 0 .3.1.4.2.5s.3.1.6.1h.4s0 .1.1.1zm.5-8.8c0 .3-.1.5-.3.7s-.4.3-.6.3-.4-.1-.6-.3-.3-.4-.3-.6c0-.3.1-.5.3-.7s.4-.3.6-.3c.3 0 .5.1.6.3.2.2.3.4.3.6z"/><path d="m217.7 69.7c-.7 0-1.2-.1-1.7-.4-.4-.2-.7-.6-.7-.9 0-.2.1-.4.2-.5s.3-.2.5-.2.3 0 .4.1.2.2.3.3.1.3.2.4c.1.2.1.3.1.4.1.1.2.1.3.2s.3.1.5.1c.5 0 .9-.1 1.1-.4.3-.2.4-.6.4-1 0-.3-.1-.6-.4-.7-.2-.2-.6-.4-1.1-.5-.2-.1-.4-.1-.6-.2s-.4-.2-.5-.4c-.2-.1-.3-.3-.4-.5s-.2-.4-.2-.7c0-.6.3-1.1.8-1.5s1.2-.6 1.9-.6h.6s.4.1.7.2c.2.1.4.2.5.3.2.1.2.3.2.6 0 .2-.1.4-.2.5-.1.2-.3.2-.5.2s-.3 0-.4-.1-.2-.2-.3-.3-.1-.3-.2-.4-.1-.3-.2-.4c-.1 0-.2-.1-.2-.1s-.2 0-.3 0c-.4 0-.8.1-1 .4-.2.2-.3.5-.3.9 0 .3.1.6.3.7.2.2.5.3 1 .5.6.2 1.1.5 1.4.8s.4.6.4 1.1c0 .7-.3 1.3-.8 1.7-.3.2-.9.4-1.8.4z"/><path d="m223.2 69.6c-.4 0-.8-.1-1-.3s-.3-.4-.3-.8c0-.1 0-.2 0-.3s0-.2.1-.3l1.1-4.6h-1.2l.1-.6h1.2l.5-2h1.2l-.5 2h1.9l-.1.6h-1.9l-.9 3.8c0 .2-.1.3-.1.5v.4c0 .3.1.4.2.5s.4.2.7.2h.5c.2 0 .4-.1.5-.1l-.1.5c-.3.1-.6.2-.9.3-.2.2-.6.2-1 .2z"/><path d="m232.4 63.7c0 .1 0 .3-.1.4 0 .2-.1.3-.2.4s-.2.2-.3.3-.2.1-.4.1-.4-.1-.6-.2-.2-.3-.2-.4 0-.3.1-.5.1-.3.2-.5c-.1 0-.1 0-.3 0-.1 0-.3.1-.5.2s-.4.2-.6.4-.5.4-.7.7l-1.1 4.9h-1.3l1-4.4c0-.1.1-.3.1-.5s.1-.4.1-.5c0-.3 0-.4-.1-.5s-.3-.1-.5-.1c-.1 0-.2 0-.4.1-.2 0-.3.1-.4.1l.1-.4c.4-.2.7-.3.9-.4s.5-.1.7-.1c.4 0 .6.1.8.3s.2.5.2.9c.5-.5 1-.8 1.2-1 .3-.2.6-.3.9-.3.1 0 .3 0 .4.1s.3.1.3.2c.1.1.2.2.2.3.5 0 .5.2.5.4z"/><path d="m236 68.8-.1.4c-.4.2-.8.3-1 .4-.3.1-.5.1-.6.1-.4 0-.6-.1-.8-.3s-.3-.4-.3-.7c0-.1 0-.2 0-.3s0-.3.1-.4l.7-3c0-.2.1-.3.1-.5s.1-.3.1-.5c0-.3 0-.4-.1-.5s-.3-.1-.5-.1c-.1 0-.2 0-.4 0s-.3.1-.4.1l.1-.4c.4-.2.7-.3 1-.4s.5-.1.7-.1c.4 0 .6.1.8.3s.3.4.3.7v.3c0 .1 0 .3-.1.4l-.7 2.9c0 .2-.1.4-.1.5 0 .2-.1.3-.1.4 0 .3.1.4.2.5s.3.1.6.1h.4s0 .1.1.1zm.5-8.8c0 .3-.1.5-.3.7s-.4.3-.6.3-.4-.1-.6-.3-.3-.4-.3-.6c0-.3.1-.5.3-.7s.4-.3.6-.3c.3 0 .5.1.6.3.2.2.3.4.3.6z"/><path d="m243.5 65.2c0 .6-.1 1.2-.3 1.7-.2.6-.5 1-.9 1.4s-.8.7-1.3 1c-.5.2-1 .4-1.5.4-.4 0-.7 0-1-.1s-.6-.2-.8-.3-.4-.3-.5-.4-.3-.3-.4-.5l1.8-7.7c0-.1 0-.2.1-.3 0-.1 0-.2 0-.2 0-.2 0-.3-.1-.4s-.1-.2-.2-.2-.2-.1-.4-.1-.3 0-.4 0l.1-.4 2.5-.2.1.1-1 4.5c.4-.4.8-.6 1.1-.8.3-.1.6-.2.9-.2.7 0 1.2.2 1.6.7.4.6.6 1.2.6 2zm-1.4 0c0-.2 0-.5-.1-.7 0-.2-.1-.4-.2-.6s-.2-.3-.4-.4-.4-.2-.7-.2c-.2 0-.3 0-.5.1s-.3.1-.4.2-.3.2-.4.3-.2.2-.3.3l-.9 4.1c0 .1.1.2.1.3s.2.2.3.3.3.2.4.2c.2.1.3.1.5.1.4 0 .7-.1 1-.3s.6-.5.8-.9c.3-.4.4-.8.6-1.3.1-.5.2-.9.2-1.5z"/><path d="m248.7 68.5c-.3.2-.5.3-.6.5s-.4.3-.6.4-.4.2-.6.2-.4.1-.7.1c-.4 0-.8-.1-1-.4s-.4-.6-.4-1c0-.1 0-.2 0-.4s.1-.4.1-.7l.5-2.2c0-.2.1-.4.1-.5 0-.2 0-.3 0-.4 0-.3 0-.4-.1-.5s-.3-.1-.5-.1c-.1 0-.2 0-.4.1s-.3.1-.4.1l.1-.4c.4-.2.7-.3.9-.4.3-.1.5-.1.7-.1.4 0 .6.1.8.3s.3.4.3.7v.3c0 .1 0 .3-.1.4l-.6 2.5c0 .2-.1.4-.1.5v.4c0 .3.1.5.2.7s.3.3.6.3.6-.1.9-.2c.3-.2.6-.4.9-.7l1.2-5.1 1.2-.1.1.1-1 4.4c0 .2-.1.4-.1.6s-.1.3-.1.4c0 .3.1.4.2.5s.3.1.6.1h.4s.3-.1.4-.1l-.1.4c-.4.2-.7.3-.9.3s-.5.1-.7.1c-.4 0-.6-.1-.8-.3s-.4-.5-.4-.8z"/><path d="m253.8 69.6c-.4 0-.8-.1-1-.3s-.3-.4-.3-.8c0-.1 0-.2 0-.3s0-.2.1-.3l1.1-4.6h-1.2l.1-.6h1.2l.5-2h1.2l-.5 2h1.9l-.1.6h-1.8l-.9 3.8c0 .2-.1.3-.1.5v.4c0 .3.1.4.2.5s.4.2.7.2h.5c.2 0 .4-.1.5-.1l-.1.5c-.3.1-.6.2-.9.3-.4.2-.7.2-1.1.2z"/><path d="m260.2 68.8-.1.4c-.4.2-.8.3-1 .4-.3.1-.5.1-.6.1-.4 0-.6-.1-.8-.3s-.3-.4-.3-.7c0-.1 0-.2 0-.3s0-.3.1-.4l.7-2.9c0-.2.1-.3.1-.5s.1-.3.1-.5c0-.3 0-.4-.1-.5s-.3-.1-.5-.1c-.1 0-.2 0-.4 0s-.3.1-.4.1l.1-.4c.4-.2.7-.3 1-.4s.5-.1.7-.1c.4 0 .6.1.8.3s.3.4.3.7v.3c0 .1 0 .3-.1.4l-.7 2.9c0 .2-.1.4-.1.5 0 .2-.1.3-.1.4 0 .3.1.4.2.5s.3.1.6.1h.4s.1 0 .1 0zm.5-8.8c0 .3-.1.5-.3.7s-.4.3-.6.3-.4-.1-.6-.3-.3-.4-.3-.6c0-.3.1-.5.3-.7s.4-.3.6-.3c.3 0 .5.1.6.3.2.2.3.4.3.6z"/><path d="m267.6 65.3c0 .5-.1 1.1-.3 1.6s-.4 1-.8 1.4-.8.8-1.3 1c-.5.3-1.1.4-1.7.4-.8 0-1.4-.2-1.8-.7-.5-.5-.7-1.1-.7-2 0-.6.1-1.2.3-1.7s.5-1 .8-1.4.8-.7 1.3-1c.5-.2 1-.4 1.6-.4.8 0 1.4.2 1.9.7.4.6.7 1.3.7 2.1zm-1.4-.3c0-.6-.1-1.1-.3-1.5-.2-.3-.6-.5-1-.5s-.7.1-1.1.3c-.3.2-.6.6-.9 1.1-.2.4-.3.8-.4 1.3s-.1.9-.1 1.3c0 .7.1 1.1.3 1.5.2.3.6.5 1 .5s.8-.1 1.1-.4.6-.6.8-1 .3-.8.5-1.3c0-.2.1-.8.1-1.3z"/><path d="m275.7 68.7-.1.4c-.4.2-.7.3-1 .4-.2.1-.5.1-.7.1-.4 0-.6-.1-.8-.3s-.3-.4-.3-.7c0-.1 0-.2 0-.3s0-.3.1-.4l.7-2.6c.1-.2.1-.4.1-.5 0-.2 0-.3 0-.4 0-.3-.1-.5-.2-.7s-.4-.3-.6-.3c-.3 0-.6.1-.9.3s-.7.4-1 .8l-1.2 5h-1.3l1-4.4c0-.1.1-.3.1-.5s.1-.4.1-.5c0-.3 0-.4-.1-.5s-.3-.1-.5-.1c-.1 0-.2 0-.4.1-.2 0-.3.1-.4.1l.1-.4c.4-.2.7-.3.9-.4.3-.1.5-.1.7-.1.4 0 .6.1.8.3s.2.5.2.8c.5-.4.9-.7 1.3-.9s.8-.3 1.2-.3.8.1 1 .4.4.6.4 1v.4c0 .2-.1.4-.1.6l-.6 2.2c0 .1-.1.3-.1.5s-.1.3-.1.4c0 .3.1.4.2.5s.3.1.6.1h.4c.3 0 .4-.1.5-.1z"/><path d="m288.7 59.8-.5 2.3h-.5c0-.5-.1-.9-.3-1.2s-.4-.5-.7-.6c-.1 0-.3 0-.5 0s-.4 0-.7 0h-1.6l-.9 3.9h1.1c.3 0 .6 0 .8-.1s.4-.2.5-.3.3-.3.4-.6c.1-.2.2-.4.3-.6h.5l-.9 3.8h-.5s0-.1 0-.2 0-.1 0-.2c0-.2 0-.3 0-.5s-.1-.3-.1-.3c-.1-.2-.2-.3-.4-.3s-.4-.1-.7-.1h-1.1l-.7 3c0 .1 0 .2-.1.4v.3c0 .3.1.4.3.5s.6.1 1.2.1c.8 0 1.3 0 1.6-.1s.5-.1.6-.2c.3-.2.6-.5.9-1s.6-.8.7-1h.5l-.8 2.9h-8.1l.1-.5c.1 0 .3 0 .6-.1.2 0 .4-.1.5-.1.2-.1.3-.1.4-.3.1-.1.1-.3.2-.4l1.6-7v-.1s0-.1 0-.1c0-.1 0-.2-.1-.2s-.1-.1-.2-.2-.3-.1-.5-.2c-.2 0-.4-.1-.5-.1l.1-.5h7.5z"/><path d="m293.1 68.5c-.2.1-.3.2-.4.3s-.3.2-.5.4c-.2.1-.4.2-.6.3s-.5.1-.7.1c-.7 0-1.2-.2-1.6-.7s-.6-1.1-.6-1.9c0-.6.1-1.1.3-1.6s.5-1 .9-1.4.8-.7 1.3-1c.5-.2 1-.4 1.5-.4.3 0 .6 0 .9.1s.5.2.7.3l1.2-.3.1.1-1.9 8.2c0 .1 0 .2-.1.3v.2c0 .1 0 .2.1.3s.2.1.3.2c.1 0 .2.1.4.1h.4l-.1.4h-3.8l.1-.4h.4s.3 0 .4-.1c.1 0 .3-.1.3-.2.1-.1.1-.2.2-.4zm.9-4.2c0-.1 0-.3-.1-.4 0-.1-.1-.3-.2-.4s-.2-.2-.4-.3-.4-.1-.6-.1c-.3 0-.7.1-1 .3s-.6.5-.9.9c-.2.4-.4.8-.6 1.3s-.2 1-.2 1.5c0 .3 0 .5.1.7 0 .2.1.4.2.6s.2.3.4.4.4.1.6.1c.3 0 .6-.1.9-.3s.6-.4.9-.8z"/><path d="m300.7 68.5c-.3.2-.5.3-.6.5s-.4.3-.6.4-.4.2-.6.2-.4.1-.7.1c-.4 0-.8-.1-1-.4s-.4-.6-.4-1c0-.1 0-.2 0-.4s.1-.4.1-.7l.5-2.2c0-.2.1-.4.1-.5 0-.2 0-.3 0-.4 0-.3 0-.4-.1-.5s-.3-.1-.5-.1c-.1 0-.2 0-.4.1s-.3.1-.4.1l.1-.4c.4-.2.7-.3.9-.4.3-.1.5-.1.7-.1.4 0 .6.1.8.3s.3.4.3.7v.3c0 .1 0 .3-.1.4l-.6 2.5c0 .2-.1.4-.1.5v.4c0 .3.1.5.2.7s.3.3.6.3.6-.1.9-.2c.3-.2.6-.4.9-.7l1.2-5.1 1.2-.1.1.1-1 4.4c0 .2-.1.4-.1.6s-.1.3-.1.4c0 .3.1.4.2.5s.3.1.6.1h.4s.3-.1.4-.1l-.1.4c-.4.2-.7.3-.9.3s-.5.1-.7.1c-.4 0-.6-.1-.8-.3s-.4-.5-.4-.8z"/><path d="m307.6 68.8-.1.4c-.4.2-.8.3-1 .4-.3.1-.5.1-.6.1-.4 0-.6-.1-.8-.3s-.3-.4-.3-.7c0-.1 0-.2 0-.3s0-.3.1-.4l.7-2.9c0-.2.1-.3.1-.5s.1-.3.1-.5c0-.3 0-.4-.1-.5s-.3-.1-.5-.1c-.1 0-.2 0-.4 0s-.3.1-.4.1l.1-.4c.4-.2.7-.3 1-.4s.5-.1.7-.1c.4 0 .6.1.8.3s.3.4.3.7v.3c0 .1 0 .3-.1.4l-.7 2.9c0 .2-.1.4-.1.5 0 .2-.1.3-.1.4 0 .3.1.4.2.5s.3.1.6.1h.4s0 0 .1 0zm.4-8.8c0 .3-.1.5-.3.7s-.4.3-.6.3-.4-.1-.6-.3-.3-.4-.3-.6c0-.3.1-.5.3-.7s.4-.3.6-.3c.3 0 .5.1.6.3.3.2.3.4.3.6z"/><path d="m315.4 65.2c0 .6-.1 1.2-.3 1.7s-.5 1-.9 1.4-.8.8-1.3 1-.9.3-1.4.3c-.4 0-.7 0-1-.1s-.5-.2-.7-.4l-.4 1.8c0 .1 0 .2-.1.3v.2c0 .1 0 .2.1.3s.2.1.3.2c.1 0 .2.1.4.1h.4l-.1.4h-3.8l.1-.4h.4s.2 0 .4-.1c.1 0 .3-.1.3-.2.1-.1.1-.2.2-.4l1.4-6.3c0-.2.1-.3.1-.5s0-.3 0-.5c0-.3 0-.4-.1-.5s-.3-.1-.5-.1c-.1 0-.2 0-.4.1-.2 0-.3.1-.4.1l.1-.4c.3-.2.7-.3.9-.4.3-.1.5-.1.7-.1.3 0 .6.1.7.2s.3.4.3.7h.1c.3-.3.6-.5 1-.7s.7-.3 1.1-.3c.7 0 1.2.2 1.6.7.6.5.8 1.1.8 1.9zm-2.1 2.8c.2-.4.4-.8.5-1.3s.2-1 .2-1.5c0-.2 0-.5-.1-.7 0-.2-.1-.4-.2-.6s-.2-.3-.4-.4-.4-.1-.7-.1c-.2 0-.4.1-.7.2s-.6.4-.9.7l-.9 3.9c0 .3.2.5.4.7s.5.3.9.3.7-.1 1-.3.7-.5.9-.9z"/><path d="m327.7 68.7-.1.4c-.4.2-.8.3-1 .4-.3.1-.5.1-.6.1-.4 0-.6-.1-.8-.3s-.3-.4-.3-.7c0-.1 0-.2 0-.3s0-.3.1-.4l.7-2.6c.1-.2.1-.4.1-.5 0-.2 0-.3 0-.4 0-.3-.1-.5-.2-.7s-.3-.3-.6-.3-.6.1-.9.2-.6.4-1 .8l-1.2 5.1h-1.3l1.1-4.6c0-.1 0-.2.1-.3 0-.1 0-.2 0-.2 0-.3-.1-.5-.2-.7s-.4-.3-.6-.3c-.3 0-.5.1-.9.2s-.7.4-1.1.9l-1.2 5h-1.3l1-4.4c0-.2.1-.3.1-.5s.1-.3.1-.5c0-.3 0-.4-.1-.5s-.3-.1-.5-.1c-.1 0-.2 0-.4.1-.2 0-.3.1-.4.1l.1-.4c.4-.2.7-.3.9-.4.3-.1.5-.1.7-.1.4 0 .6.1.8.3s.2.5.2.8c.5-.4 1-.7 1.3-.9s.8-.3 1.2-.3.7.1 1 .4c.3.2.4.5.4.9.5-.4.9-.7 1.3-.9s.8-.3 1.3-.3c.4 0 .8.1 1 .4s.4.6.4 1v.4c0 .2-.1.4-.1.6l-.6 2.2c0 .1-.1.3-.1.5s-.1.3-.1.4c0 .3.1.4.2.5s.3.1.6.1h.4c.3-.1.4-.1.5-.2z"/><path d="m334.3 64c0 .5-.2.9-.5 1.2s-.7.6-1.3.8c-.4.2-.9.3-1.3.4s-.9.2-1.4.2c0 .7.1 1.3.4 1.7s.7.6 1.2.6.9-.1 1.2-.3.7-.6 1-1l.4.3c-.4.6-.8 1-1.4 1.3s-1.1.5-1.7.5c-.8 0-1.4-.2-1.8-.7s-.6-1.1-.6-1.9c0-.6.1-1.1.3-1.6s.4-1 .8-1.4c.3-.4.8-.8 1.2-1 .5-.3 1-.4 1.6-.4.7 0 1.1.1 1.5.4.2.2.4.5.4.9zm-1.3-.1c0-.2 0-.3-.1-.4s-.1-.2-.2-.2c-.1-.1-.2-.1-.3-.1s-.2 0-.3 0c-.5 0-1.1.3-1.5.9-.5.6-.8 1.3-.9 2.2.3 0 .7-.1 1.1-.2s.7-.2 1-.3c.4-.2.7-.4.8-.8.3-.4.4-.7.4-1.1z"/><path d="m342.3 68.7-.1.4c-.4.2-.7.3-1 .4-.2.1-.5.1-.7.1-.4 0-.6-.1-.8-.3s-.3-.4-.3-.7c0-.1 0-.2 0-.3s0-.3.1-.4l.7-2.6c.1-.2.1-.4.1-.5 0-.2 0-.3 0-.4 0-.3-.1-.5-.2-.7s-.4-.3-.6-.3c-.3 0-.6.1-.9.3s-.7.4-1 .8l-1.2 5h-1.3l1-4.4c0-.1.1-.3.1-.5s.1-.4.1-.5c0-.3 0-.4-.1-.5s-.3-.1-.5-.1c-.1 0-.2 0-.4.1-.2 0-.3.1-.4.1l.1-.4c.4-.2.7-.3.9-.4.3-.1.5-.1.7-.1.4 0 .6.1.8.3s.2.5.2.8c.5-.4.9-.7 1.3-.9s.8-.3 1.2-.3.8.1 1 .4.4.6.4 1v.4c0 .2-.1.4-.1.6l-.6 2.2c0 .1-.1.3-.1.5s-.1.3-.1.4c0 .3.1.4.2.5s.3.1.6.1h.4c.2 0 .4-.1.5-.1z"/><path d="m344.6 69.6c-.4 0-.8-.1-1-.3s-.3-.4-.3-.8c0-.1 0-.2 0-.3s0-.2.1-.3l1.1-4.6h-1.2l.1-.6h1.2l.5-2h1.2l-.5 2h1.9l-.1.6h-1.9l-.9 3.8c0 .2-.1.3-.1.5v.4c0 .3.1.4.2.5s.4.2.7.2h.5c.2 0 .4-.1.5-.1l-.1.5c-.3.1-.6.2-.9.3-.3.2-.6.2-1 .2z"/></g></svg>